# xmcd
#
# Track frame offsets: 
#        150
#        15900
#        38955
#        51000
#        60637
#        70390
#        82535
#        95945
#        108562
#        122035
#        135150
#        145175
#        164425
#        176100
#        186525
#
# Disc length: 2656 seconds
#
# Revision: 2
# Processed by: cddbd v1.5.2PL0 Copyright (c) Steve Scherf et al.
# Submitted via: ExactAudioCopy v1.3
#
DISCID=ce0a5e0f
DTITLE=Various Artist - EMI Legends of Rock N' Roll- 24 Greatest Hits of AllT
DTITLE=ime
DYEAR=1991
DGENRE=Rock
TTITLE0=Shirley And Lee - Let the Good Times Roll
TTITLE1=The_Rivingtons - Papa-Oom-Mow-Mow
TTITLE2=The_Exciters - Tell Him
TTITLE3=Del_Shannon - Runaway '67
TTITLE4=The_Five Keys - The Glory of Love
TTITLE5=Ike and Tina_Turner - Proud Mary
TTITLE6=The_Isley Brothers - Who's That Lady
TTITLE7=Jan and Dean - Surf City
TTITLE8=The_Crickets - My Little Girl
TTITLE9=Vikki_Carr - It Must Be Him
TTITLE10=Slim_Whitman - Una Paloma Blanca
TTITLE11=Cher - Bang, Bang (My Baby Shot Me Down)
TTITLE12=Marv_Johnson - You Got What It Takes
TTITLE13=Bobby_Goldsboro - Honey
TTITLE14=The_Highwaymen - Michael, Row The Boat Ashore
EXTD=
EXTT0=
EXTT1=
EXTT2=
EXTT3=
EXTT4=
EXTT5=
EXTT6=
EXTT7=
EXTT8=
EXTT9=
EXTT10=
EXTT11=
EXTT12=
EXTT13=
EXTT14=
PLAYORDER=
